<mxfile host="app.diagrams.net" modified="2021-02-25T09:23:52.359Z" agent="5.0 (Windows)" etag="9CJ2_fgckim48YnYgblr" version="13.8.8" type="github">
  <diagram id="MTbb7U8BOBDFxP4eT7VZ" name="Page-1">
    <mxGraphModel dx="1209" dy="1841" grid="1" gridSize="10" guides="1" tooltips="1" connect="1" arrows="1" fold="1" page="1" pageScale="1" pageWidth="827" pageHeight="1169" math="0" shadow="0">
      <root>
        <mxCell id="0" />
        <mxCell id="1" parent="0" />
        <mxCell id="uaKe1ozYS99Z_OOT2W_g-1" value="USER" style="whiteSpace=wrap;html=1;aspect=fixed;" vertex="1" parent="1">
          <mxGeometry x="90" y="90" width="80" height="80" as="geometry" />
        </mxCell>
        <mxCell id="uaKe1ozYS99Z_OOT2W_g-9" style="edgeStyle=orthogonalEdgeStyle;rounded=0;orthogonalLoop=1;jettySize=auto;html=1;entryX=1;entryY=0.25;entryDx=0;entryDy=0;" edge="1" parent="1" source="uaKe1ozYS99Z_OOT2W_g-2" target="uaKe1ozYS99Z_OOT2W_g-1">
          <mxGeometry relative="1" as="geometry" />
        </mxCell>
        <mxCell id="uaKe1ozYS99Z_OOT2W_g-11" style="edgeStyle=orthogonalEdgeStyle;rounded=0;orthogonalLoop=1;jettySize=auto;html=1;entryX=0.5;entryY=1;entryDx=0;entryDy=0;" edge="1" parent="1" source="uaKe1ozYS99Z_OOT2W_g-2" target="uaKe1ozYS99Z_OOT2W_g-10">
          <mxGeometry relative="1" as="geometry" />
        </mxCell>
        <mxCell id="uaKe1ozYS99Z_OOT2W_g-2" value="&lt;div&gt;WALLET&lt;/div&gt;" style="rounded=0;whiteSpace=wrap;html=1;" vertex="1" parent="1">
          <mxGeometry x="170" y="140" width="120" height="30" as="geometry" />
        </mxCell>
        <mxCell id="uaKe1ozYS99Z_OOT2W_g-5" style="edgeStyle=orthogonalEdgeStyle;rounded=0;orthogonalLoop=1;jettySize=auto;html=1;" edge="1" parent="1" source="uaKe1ozYS99Z_OOT2W_g-4" target="uaKe1ozYS99Z_OOT2W_g-2">
          <mxGeometry relative="1" as="geometry" />
        </mxCell>
        <mxCell id="uaKe1ozYS99Z_OOT2W_g-4" value="&lt;div&gt;TRANSACTION&lt;/div&gt;" style="shape=parallelogram;perimeter=parallelogramPerimeter;whiteSpace=wrap;html=1;fixedSize=1;" vertex="1" parent="1">
          <mxGeometry x="170" y="340" width="120" height="60" as="geometry" />
        </mxCell>
        <mxCell id="uaKe1ozYS99Z_OOT2W_g-7" style="edgeStyle=orthogonalEdgeStyle;rounded=0;orthogonalLoop=1;jettySize=auto;html=1;exitX=0.5;exitY=1;exitDx=0;exitDy=0;entryX=0.5;entryY=1;entryDx=0;entryDy=0;" edge="1" parent="1" source="uaKe1ozYS99Z_OOT2W_g-6" target="uaKe1ozYS99Z_OOT2W_g-4">
          <mxGeometry relative="1" as="geometry">
            <Array as="points">
              <mxPoint x="590" y="460" />
              <mxPoint x="230" y="460" />
            </Array>
          </mxGeometry>
        </mxCell>
        <mxCell id="uaKe1ozYS99Z_OOT2W_g-6" value="RECPOINT" style="rounded=1;whiteSpace=wrap;html=1;" vertex="1" parent="1">
          <mxGeometry x="530" y="90" width="120" height="80" as="geometry" />
        </mxCell>
        <mxCell id="uaKe1ozYS99Z_OOT2W_g-8" value="MODERATION" style="ellipse;shape=cloud;whiteSpace=wrap;html=1;" vertex="1" parent="1">
          <mxGeometry x="170" y="240" width="120" height="80" as="geometry" />
        </mxCell>
        <mxCell id="uaKe1ozYS99Z_OOT2W_g-13" style="edgeStyle=orthogonalEdgeStyle;rounded=0;orthogonalLoop=1;jettySize=auto;html=1;entryX=1;entryY=0.5;entryDx=0;entryDy=0;exitX=0.5;exitY=1;exitDx=0;exitDy=0;" edge="1" parent="1" source="uaKe1ozYS99Z_OOT2W_g-10" target="uaKe1ozYS99Z_OOT2W_g-2">
          <mxGeometry relative="1" as="geometry" />
        </mxCell>
        <mxCell id="uaKe1ozYS99Z_OOT2W_g-10" value="PARTNER&lt;br&gt;ITEM" style="shape=step;perimeter=stepPerimeter;whiteSpace=wrap;html=1;fixedSize=1;" vertex="1" parent="1">
          <mxGeometry x="354" y="-140" width="120" height="80" as="geometry" />
        </mxCell>
        <mxCell id="uaKe1ozYS99Z_OOT2W_g-14" value="PARTNER" style="rounded=0;whiteSpace=wrap;html=1;" vertex="1" parent="1">
          <mxGeometry x="630" y="-360" width="120" height="100" as="geometry" />
        </mxCell>
        <mxCell id="uaKe1ozYS99Z_OOT2W_g-17" style="edgeStyle=orthogonalEdgeStyle;rounded=0;orthogonalLoop=1;jettySize=auto;html=1;entryX=0.5;entryY=0;entryDx=0;entryDy=0;" edge="1" parent="1" source="uaKe1ozYS99Z_OOT2W_g-16" target="uaKe1ozYS99Z_OOT2W_g-10">
          <mxGeometry relative="1" as="geometry" />
        </mxCell>
        <mxCell id="uaKe1ozYS99Z_OOT2W_g-16" value="ITEMS" style="shape=trapezoid;perimeter=trapezoidPerimeter;whiteSpace=wrap;html=1;fixedSize=1;" vertex="1" parent="1">
          <mxGeometry x="610" y="-260" width="160" height="60" as="geometry" />
        </mxCell>
      </root>
    </mxGraphModel>
  </diagram>
</mxfile>
